#!OML:ASF F:\VICON\USERDATA\INSTALL\rory3\rory3.ASF
:FULLY-SPECIFIED
:DEGREES
680
root 4.31919 15.6357 2.1057 24.245 -5.83069 1.50045
lowerback 11.708 -2.61443 3.76601
upperback 3.66825 -3.02328 -0.214566
thorax -2.92103 -1.49773 -1.91455
lowerneck -14.7368 -0.500013 -2.25619
upperneck 37.8628 0.891769 -2.74786
head 15.9327 -0.376516 -0.641338
rclavicle 2.84262e-014 1.09332e-015
rhumerus -62.3469 62.3079 -61.3647
rradius 68.5364
rwrist -18.1677
rhand -6.73938 -39.1505
rfingers 7.12502
rthumb 19.1215 -68.2305
lclavicle 2.84262e-014 1.09332e-015
lhumerus -43.6465 -72.792 39.6995
lradius 65.0918
lwrist 44.2051
lhand -15.841 -27.4337
lfingers 7.12502
lthumb 10.3535 2.29145
rfemur -83.0672 -7.4871 22.7949
rtibia 43.8129
rfoot 37.5207 -1.02612
rtoes 3.98093
lfemur -58.9769 -5.47623 -29.6086
ltibia 61.6076
lfoot -24.962 8.47495
ltoes 11.0776
681
root 4.31801 15.6367 2.11059 24.2527 -5.92509 1.49649
lowerback 11.6835 -2.56445 3.76455
upperback 3.68627 -2.96048 -0.246179
thorax -2.88651 -1.46602 -1.95729
lowerneck -14.7489 -0.539846 -2.39997
upperneck 37.8652 0.789502 -2.51325
head 15.9335 -0.40694 -0.531977
rclavicle 4.37326e-015 -1.07344e-014
rhumerus -62.3929 61.9411 -61.4359
rradius 68.5355
rwrist -17.7124
rhand -6.13206 -39.1208
rfingers 7.12502
rthumb 19.7054 -68.142
lclavicle 4.37326e-015 -1.07344e-014
lhumerus -43.6183 -72.8589 39.7146
lradius 65.0423
lwrist 44.0977
lhand -15.9118 -27.6682
lfingers 7.12502
lthumb 10.2853 2.06028
rfemur -83.0748 -7.43461 22.8088
rtibia 43.8243
rfoot 37.4931 -0.949123
rtoes 3.72734
lfemur -58.9778 -5.44487 -29.6137
ltibia 61.5912
lfoot -24.9388 8.56976
ltoes 11.9336
682
root 4.31532 15.6358 2.11232 24.2489 -5.9241 1.4903
lowerback 11.6461 -2.54932 3.80539
upperback 3.73397 -2.93925 -0.266955
thorax -2.81789 -1.45385 -2.00758
lowerneck -14.7207 -0.573966 -2.50051
upperneck 37.7769 0.693237 -2.31799
head 15.879 -0.43242 -0.444701
rclavicle -3.86636e-014 1.10325e-014
rhumerus -62.322 61.1722 -61.5186
rradius 68.3951
rwrist -16.9094
rhand -5.71123 -39.1289
rfingers 7.12502
rthumb 20.1099 -68.1081
lclavicle -3.86636e-014 1.10325e-014
lhumerus -43.3335 -72.9145 39.4304
lradius 65.0416
lwrist 44.1659
lhand -15.0165 -27.3071
lfingers 7.12502
lthumb 11.1489 2.37672
rfemur -83.071 -7.41186 22.8105
rtibia 43.8329
rfoot 37.5024 -1.08846
rtoes 3.78195
lfemur -58.9798 -5.48518 -29.5628
ltibia 61.5881
lfoot -24.9305 8.54474
ltoes 13.1022
683
root 4.31203 15.6354 2.11354 24.2393 -5.90066 1.47746
lowerback 11.6666 -2.54772 3.81566
upperback 3.72923 -2.93443 -0.252674
thorax -2.83342 -1.45177 -1.99826
lowerneck -14.6334 -0.592515 -2.55656
upperneck 37.7249 0.645639 -2.23279
head 15.8305 -0.447015 -0.404937
rclavicle 2.70347e-014 3.72721e-015
rhumerus -62.2739 62.1929 -61.4062
rradius 68.6957
rwrist -17.9507
rhand -6.48942 -39.0664
rfingers 7.12502
rthumb 19.3618 -68.1225
lclavicle 2.70347e-014 3.72721e-015
lhumerus -43.5197 -72.984 39.5876
lradius 65.0762
lwrist 44.2679
lhand -14.3472 -26.9479
lfingers 7.12502
lthumb 11.7943 2.69999
rfemur -83.0757 -7.43141 22.8906
rtibia 43.8547
rfoot 37.555 -1.12265
rtoes 3.70166
lfemur -58.9553 -5.54477 -29.4994
ltibia 61.5965
lfoot -24.9565 8.55853
ltoes 12.5247
684
root 4.30949 15.6376 2.1154 24.2068 -5.93486 1.49385
lowerback 11.7891 -2.5541 3.75714
upperback 3.67239 -2.94274 -0.245824
thorax -2.95712 -1.45841 -1.95086
lowerneck -14.4571 -0.572921 -2.57058
upperneck 37.6137 0.673462 -2.24679
head 15.7318 -0.437013 -0.401229
rclavicle 1.09332e-015 3.32964e-015
rhumerus -62.411 61.7603 -61.6815
rradius 68.5847
rwrist -17.5604
rhand -7.17888 -38.7691
rfingers 7.12502
rthumb 18.6988 -67.8903
lclavicle 1.09332e-015 3.32964e-015
lhumerus -44.1366 -73.0744 40.1791
lradius 65.0538
lwrist 44.2243
lhand -14.5781 -26.9874
lfingers 7.12502
lthumb 11.5716 2.6731
rfemur -83.0795 -7.44506 22.9515
rtibia 43.9041
rfoot 37.5737 -1.02623
rtoes 3.51172
lfemur -58.8932 -5.5719 -29.4961
ltibia 61.5948
lfoot -25.036 8.6652
ltoes 11.5995
685
root 4.30687 15.6361 2.11484 24.1739 -5.99932 1.55828
lowerback 11.9255 -2.61449 3.60232
upperback 3.63536 -3.03252 -0.223601
thorax -3.06728 -1.50449 -1.82111
lowerneck -14.3049 -0.475022 -2.60329
upperneck 37.4183 0.845451 -2.32476
head 15.5984 -0.378066 -0.396218
rclavicle -2.04251e-014 2.97183e-014
rhumerus -61.9721 62.2859 -61.3485
rradius 68.6766
rwrist -17.9585
rhand -6.47925 -39.0458
rfingers 7.12502
rthumb 19.3716 -68.1009
lclavicle -2.04251e-014 2.97183e-014
lhumerus -45.0687 -72.9058 41.0343
lradius 65.0355
lwrist 44.19
lhand -14.905 -27.0168
lfingers 7.12502
lthumb 11.2564 2.66117
rfemur -83.1232 -7.40918 22.8769
rtibia 43.994
rfoot 37.5364 -1.13366
rtoes 3.83834
lfemur -58.884 -5.5815 -29.5535
ltibia 61.6129
lfoot -25.1076 8.72129
ltoes 11.458
686
root 4.30133 15.6259 2.11452 24.146 -6.20126 1.7384
lowerback 12.0359 -2.63673 3.20179
upperback 3.60476 -3.10291 -0.199584
thorax -3.14244 -1.53979 -1.55567
lowerneck -14.2071 -0.368851 -2.72804
upperneck 37.2861 1.04855 -2.36906
head 15.5107 -0.315561 -0.35662
rclavicle 8.15017e-015 1.63997e-014
rhumerus -61.4427 62.3265 -60.9734
rradius 68.6083
rwrist -17.7599
rhand -6.05758 -39.3269
rfingers 7.12502
rthumb 19.777 -68.3408
lclavicle 8.15017e-015 1.63997e-014
lhumerus -46.0841 -72.5381 41.9935
lradius 65.031
lwrist 44.1715
lhand -15.1786 -27.1295
lfingers 7.12502
lthumb 10.9925 2.56268
rfemur -83.1964 -7.22336 22.523
rtibia 44.1018
rfoot 37.5003 -1.52991
rtoes 4.24933
lfemur -58.9184 -5.51814 -29.7709
ltibia 61.6466
lfoot -25.0516 8.76418
ltoes 11.46
687
root 4.29613 15.6129 2.11736 24.1338 -6.35663 1.85338
lowerback 12.0641 -2.59225 2.98642
upperback 3.62087 -3.07018 -0.225115
thorax -3.13001 -1.52291 -1.46574
lowerneck -14.2105 -0.333409 -2.67243
upperneck 37.216 1.12608 -2.4839
head 15.4785 -0.289742 -0.401284
rclavicle -4.48259e-014 -1.63997e-014
rhumerus -61.1621 62.3971 -60.777
rradius 68.6001
rwrist -17.7492
rhand -6.01949 -39.4771
rfingers 7.12502
rthumb 19.8136 -68.4872
lclavicle -4.48259e-014 -1.63997e-014
lhumerus -46.3362 -72.3263 42.2786
lradius 64.9951
lwrist 44.1214
lhand -15.4255 -27.297
lfingers 7.12502
lthumb 10.7543 2.40772
rfemur -83.2794 -7.07253 22.2698
rtibia 44.2198
rfoot 37.5027 -1.93098
rtoes 4.56755
lfemur -58.9554 -5.44868 -29.9238
ltibia 61.7185
lfoot -24.9745 8.80816
ltoes 11.6083
688
root 4.29576 15.6111 2.12166 24.1329 -6.32207 1.80539
lowerback 12.0372 -2.51236 3.1697
upperback 3.70639 -2.94827 -0.290409
thorax -3.03203 -1.46094 -1.65805
lowerneck -14.3412 -0.400861 -2.46363
upperneck 37.1778 0.999226 -2.56076
head 15.4907 -0.322183 -0.491948
rclavicle -3.00165e-014 1.22253e-014
rhumerus -61.207 62.1222 -60.8876
rradius 68.515
rwrist -17.6325
rhand -6.00047 -39.3538
rfingers 7.12502
rthumb 19.8319 -68.362
lclavicle -3.00165e-014 1.22253e-014
lhumerus -45.3519 -72.4368 41.3939
lradius 64.9551
lwrist 44.1621
lhand -15.376 -27.3293
lfingers 7.12502
lthumb 10.802 2.37295
rfemur -83.2922 -7.10126 22.3467
rtibia 44.2708
rfoot 37.5318 -1.77927
rtoes 4.23916
lfemur -58.93 -5.45701 -29.8651
ltibia 61.7595
lfoot -24.996 8.84049
ltoes 11.7469
